<svg width="35" height="45" viewBox="0 0 35 45" fill="none" xmlns="http://www.w3.org/2000/svg">
<path d="M25.5176 37.0771C25.369 36.9325 25.22 36.7875 25.0714 36.6429C29.6828 43.5199 32.4349 44.3162 33.1044 44.8954C33.402 45.1127 33.8481 44.9677 33.9971 44.6781C34.1457 44.3885 34.0714 43.9542 33.7739 43.8092C32.5093 42.7234 31.7656 43.6646 26.336 36.7149C26.1128 36.9325 25.8152 37.0048 25.5176 37.0771Z" fill="#79A4A4"/>
<path d="M0.000905038 0C0.000905038 0 0.581134 1.66893 1.59636 4.35362C1.30625 4.13582 6.09224 7.69139 6.16471 7.76391L4.06185 7.61893C3.48162 7.61893 3.04661 8.19951 3.26429 8.7073C4.352 11.6095 5.58483 15.0197 6.8174 18.5032L11.0959 21.6231L7.90537 21.4781C9.86337 26.8476 11.0959 31.9992 18.5654 33.3777C20.8135 33.8129 23.3514 34.9741 25.1642 36.5702C23.6416 34.3935 21.756 30.8379 20.5231 28.6613C15.9547 20.0995 14.3592 16.1811 10.7331 11.1023C14.5038 15.8912 16.3895 20.0268 21.1025 28.2987C22.698 30.9835 24.4383 33.9585 26.396 36.6429C29.3693 35.3368 28.2088 30.3304 27.1211 27.2831L24.5104 29.4598L25.8882 24.1631C22.7701 17.3425 18.2017 10.8123 12.2549 6.31334C11.9648 7.03889 11.6022 7.76446 11.1672 8.56283C10.9495 7.32918 10.6597 6.09587 10.2968 4.93473C4.8591 1.45133 0 0.000205191 0 0.000205191L0.000905038 0Z" fill="#79A4A4"/>
</svg>
