<svg width="262" height="60" viewBox="0 0 262 60" fill="none" xmlns="http://www.w3.org/2000/svg">
<path d="M261 23C261 10.8497 251.15 1 239 1H23C10.8497 1 1 10.8497 1 23V37C1 49.1503 10.8497 59 23 59H239C251.15 59 261 49.1503 261 37V23Z" fill="url(#paint0_linear_31_261)" stroke="url(#paint1_linear_31_261)" stroke-width="2"/>
<path d="M50.188 37V24.4H55.66C56.452 24.4 57.142 24.538 57.73 24.814C58.318 25.09 58.774 25.48 59.098 25.984C59.422 26.488 59.584 27.082 59.584 27.766V27.982C59.584 28.738 59.404 29.35 59.044 29.818C58.684 30.286 58.24 30.628 57.712 30.844V31.168C58.192 31.192 58.564 31.36 58.828 31.672C59.092 31.972 59.224 32.374 59.224 32.878V37H56.848V33.22C56.848 32.932 56.77 32.698 56.614 32.518C56.47 32.338 56.224 32.248 55.876 32.248H52.564V37H50.188ZM52.564 30.088H55.408C55.972 30.088 56.41 29.938 56.722 29.638C57.046 29.326 57.208 28.918 57.208 28.414V28.234C57.208 27.73 57.052 27.328 56.74 27.028C56.428 26.716 55.984 26.56 55.408 26.56H52.564V30.088ZM67.591 37.252C66.703 37.252 65.917 37.066 65.233 36.694C64.561 36.31 64.033 35.776 63.649 35.092C63.277 34.396 63.091 33.58 63.091 32.644V32.428C63.091 31.492 63.277 30.682 63.649 29.998C64.021 29.302 64.543 28.768 65.215 28.396C65.887 28.012 66.667 27.82 67.555 27.82C68.431 27.82 69.193 28.018 69.841 28.414C70.489 28.798 70.993 29.338 71.353 30.034C71.713 30.718 71.893 31.516 71.893 32.428V33.202H65.395C65.419 33.814 65.647 34.312 66.079 34.696C66.511 35.08 67.039 35.272 67.663 35.272C68.299 35.272 68.767 35.134 69.067 34.858C69.367 34.582 69.595 34.276 69.751 33.94L71.605 34.912C71.437 35.224 71.191 35.566 70.867 35.938C70.555 36.298 70.135 36.61 69.607 36.874C69.079 37.126 68.407 37.252 67.591 37.252ZM65.413 31.51H69.589C69.541 30.994 69.331 30.58 68.959 30.268C68.599 29.956 68.125 29.8 67.537 29.8C66.925 29.8 66.439 29.956 66.079 30.268C65.719 30.58 65.497 30.994 65.413 31.51ZM78.5737 37.252C77.9377 37.252 77.3677 37.144 76.8637 36.928C76.3597 36.7 75.9577 36.376 75.6577 35.956C75.3697 35.524 75.2257 35.002 75.2257 34.39C75.2257 33.778 75.3697 33.268 75.6577 32.86C75.9577 32.44 76.3657 32.128 76.8817 31.924C77.4097 31.708 78.0097 31.6 78.6817 31.6H81.1297V31.096C81.1297 30.676 80.9977 30.334 80.7337 30.07C80.4697 29.794 80.0497 29.656 79.4737 29.656C78.9097 29.656 78.4897 29.788 78.2137 30.052C77.9377 30.304 77.7577 30.634 77.6737 31.042L75.5857 30.34C75.7297 29.884 75.9577 29.47 76.2697 29.098C76.5937 28.714 77.0197 28.408 77.5477 28.18C78.0877 27.94 78.7417 27.82 79.5097 27.82C80.6857 27.82 81.6157 28.114 82.2997 28.702C82.9837 29.29 83.3257 30.142 83.3257 31.258V34.588C83.3257 34.948 83.4937 35.128 83.8297 35.128H84.5497V37H83.0377C82.5937 37 82.2277 36.892 81.9397 36.676C81.6517 36.46 81.5077 36.172 81.5077 35.812V35.794H81.1657C81.1177 35.938 81.0097 36.13 80.8417 36.37C80.6737 36.598 80.4097 36.802 80.0497 36.982C79.6897 37.162 79.1977 37.252 78.5737 37.252ZM78.9697 35.416C79.6057 35.416 80.1217 35.242 80.5177 34.894C80.9257 34.534 81.1297 34.06 81.1297 33.472V33.292H78.8437C78.4237 33.292 78.0937 33.382 77.8537 33.562C77.6137 33.742 77.4937 33.994 77.4937 34.318C77.4937 34.642 77.6197 34.906 77.8717 35.11C78.1237 35.314 78.4897 35.416 78.9697 35.416ZM91.5222 37.252C90.8142 37.252 90.1482 37.078 89.5242 36.73C88.9122 36.37 88.4202 35.848 88.0482 35.164C87.6762 34.48 87.4902 33.652 87.4902 32.68V32.392C87.4902 31.42 87.6762 30.592 88.0482 29.908C88.4202 29.224 88.9122 28.708 89.5242 28.36C90.1362 28 90.8022 27.82 91.5222 27.82C92.0622 27.82 92.5122 27.886 92.8722 28.018C93.2442 28.138 93.5442 28.294 93.7722 28.486C94.0002 28.678 94.1742 28.882 94.2942 29.098H94.6182V24.4H96.8862V37H94.6542V35.92H94.3302C94.1262 36.256 93.8082 36.562 93.3762 36.838C92.9562 37.114 92.3382 37.252 91.5222 37.252ZM92.2062 35.272C92.9022 35.272 93.4842 35.05 93.9522 34.606C94.4202 34.15 94.6542 33.49 94.6542 32.626V32.446C94.6542 31.582 94.4202 30.928 93.9522 30.484C93.4962 30.028 92.9142 29.8 92.2062 29.8C91.5102 29.8 90.9282 30.028 90.4602 30.484C89.9922 30.928 89.7582 31.582 89.7582 32.446V32.626C89.7582 33.49 89.9922 34.15 90.4602 34.606C90.9282 35.05 91.5102 35.272 92.2062 35.272ZM112.035 37.252C111.171 37.252 110.385 37.06 109.677 36.676C108.981 36.28 108.423 35.71 108.003 34.966C107.595 34.21 107.391 33.292 107.391 32.212V29.188C107.391 27.568 107.847 26.326 108.759 25.462C109.671 24.586 110.907 24.148 112.467 24.148C114.015 24.148 115.209 24.562 116.049 25.39C116.901 26.206 117.327 27.316 117.327 28.72V28.792H114.987V28.648C114.987 28.204 114.891 27.802 114.699 27.442C114.519 27.082 114.243 26.8 113.871 26.596C113.499 26.38 113.031 26.272 112.467 26.272C111.627 26.272 110.967 26.53 110.487 27.046C110.007 27.562 109.767 28.264 109.767 29.152V32.248C109.767 33.124 110.007 33.832 110.487 34.372C110.967 34.9 111.639 35.164 112.503 35.164C113.367 35.164 113.997 34.936 114.393 34.48C114.789 34.024 114.987 33.448 114.987 32.752V32.572H111.999V30.556H117.327V37H115.131V35.794H114.807C114.723 35.998 114.585 36.214 114.393 36.442C114.213 36.67 113.937 36.862 113.565 37.018C113.193 37.174 112.683 37.252 112.035 37.252ZM124.961 37.144C124.265 37.144 123.653 36.988 123.125 36.676C122.609 36.352 122.207 35.908 121.919 35.344C121.631 34.78 121.487 34.132 121.487 33.4V28.072H123.755V33.22C123.755 33.892 123.917 34.396 124.241 34.732C124.577 35.068 125.051 35.236 125.663 35.236C126.359 35.236 126.899 35.008 127.283 34.552C127.667 34.084 127.859 33.436 127.859 32.608V28.072H130.127V37H127.895V35.83H127.571C127.427 36.13 127.157 36.424 126.761 36.712C126.365 37 125.765 37.144 124.961 37.144ZM134.541 37V28.072H136.809V37H134.541ZM135.675 27.028C135.267 27.028 134.919 26.896 134.631 26.632C134.355 26.368 134.217 26.02 134.217 25.588C134.217 25.156 134.355 24.808 134.631 24.544C134.919 24.28 135.267 24.148 135.675 24.148C136.095 24.148 136.443 24.28 136.719 24.544C136.995 24.808 137.133 25.156 137.133 25.588C137.133 26.02 136.995 26.368 136.719 26.632C136.443 26.896 136.095 27.028 135.675 27.028ZM144.812 37.252C144.104 37.252 143.438 37.078 142.814 36.73C142.202 36.37 141.71 35.848 141.338 35.164C140.966 34.48 140.78 33.652 140.78 32.68V32.392C140.78 31.42 140.966 30.592 141.338 29.908C141.71 29.224 142.202 28.708 142.814 28.36C143.426 28 144.092 27.82 144.812 27.82C145.352 27.82 145.802 27.886 146.162 28.018C146.534 28.138 146.834 28.294 147.062 28.486C147.29 28.678 147.464 28.882 147.584 29.098H147.908V24.4H150.176V37H147.944V35.92H147.62C147.416 36.256 147.098 36.562 146.666 36.838C146.246 37.114 145.628 37.252 144.812 37.252ZM145.496 35.272C146.192 35.272 146.774 35.05 147.242 34.606C147.71 34.15 147.944 33.49 147.944 32.626V32.446C147.944 31.582 147.71 30.928 147.242 30.484C146.786 30.028 146.204 29.8 145.496 29.8C144.8 29.8 144.218 30.028 143.75 30.484C143.282 30.928 143.048 31.582 143.048 32.446V32.626C143.048 33.49 143.282 34.15 143.75 34.606C144.218 35.05 144.8 35.272 145.496 35.272ZM158.649 37.252C157.761 37.252 156.975 37.066 156.291 36.694C155.619 36.31 155.091 35.776 154.707 35.092C154.335 34.396 154.149 33.58 154.149 32.644V32.428C154.149 31.492 154.335 30.682 154.707 29.998C155.079 29.302 155.601 28.768 156.273 28.396C156.945 28.012 157.725 27.82 158.613 27.82C159.489 27.82 160.251 28.018 160.899 28.414C161.547 28.798 162.051 29.338 162.411 30.034C162.771 30.718 162.951 31.516 162.951 32.428V33.202H156.453C156.477 33.814 156.705 34.312 157.137 34.696C157.569 35.08 158.097 35.272 158.721 35.272C159.357 35.272 159.825 35.134 160.125 34.858C160.425 34.582 160.653 34.276 160.809 33.94L162.663 34.912C162.495 35.224 162.249 35.566 161.925 35.938C161.613 36.298 161.193 36.61 160.665 36.874C160.137 37.126 159.465 37.252 158.649 37.252ZM156.471 31.51H160.647C160.599 30.994 160.389 30.58 160.017 30.268C159.657 29.956 159.183 29.8 158.595 29.8C157.983 29.8 157.497 29.956 157.137 30.268C156.777 30.58 156.555 30.994 156.471 31.51ZM166.859 37V24.4H169.127V37H166.859ZM173.53 37V28.072H175.798V37H173.53ZM174.664 27.028C174.256 27.028 173.908 26.896 173.62 26.632C173.344 26.368 173.206 26.02 173.206 25.588C173.206 25.156 173.344 24.808 173.62 24.544C173.908 24.28 174.256 24.148 174.664 24.148C175.084 24.148 175.432 24.28 175.708 24.544C175.984 24.808 176.122 25.156 176.122 25.588C176.122 26.02 175.984 26.368 175.708 26.632C175.432 26.896 175.084 27.028 174.664 27.028ZM180.202 37V28.072H182.434V29.242H182.758C182.902 28.93 183.172 28.636 183.568 28.36C183.964 28.072 184.564 27.928 185.368 27.928C186.064 27.928 186.67 28.09 187.186 28.414C187.714 28.726 188.122 29.164 188.41 29.728C188.698 30.28 188.842 30.928 188.842 31.672V37H186.574V31.852C186.574 31.18 186.406 30.676 186.07 30.34C185.746 30.004 185.278 29.836 184.666 29.836C183.97 29.836 183.43 30.07 183.046 30.538C182.662 30.994 182.47 31.636 182.47 32.464V37H180.202ZM197.252 37.252C196.364 37.252 195.578 37.066 194.894 36.694C194.222 36.31 193.694 35.776 193.31 35.092C192.938 34.396 192.752 33.58 192.752 32.644V32.428C192.752 31.492 192.938 30.682 193.31 29.998C193.682 29.302 194.204 28.768 194.876 28.396C195.548 28.012 196.328 27.82 197.216 27.82C198.092 27.82 198.854 28.018 199.502 28.414C200.15 28.798 200.654 29.338 201.014 30.034C201.374 30.718 201.554 31.516 201.554 32.428V33.202H195.056C195.08 33.814 195.308 34.312 195.74 34.696C196.172 35.08 196.7 35.272 197.324 35.272C197.96 35.272 198.428 35.134 198.728 34.858C199.028 34.582 199.256 34.276 199.412 33.94L201.266 34.912C201.098 35.224 200.852 35.566 200.528 35.938C200.216 36.298 199.796 36.61 199.268 36.874C198.74 37.126 198.068 37.252 197.252 37.252ZM195.074 31.51H199.25C199.202 30.994 198.992 30.58 198.62 30.268C198.26 29.956 197.786 29.8 197.198 29.8C196.586 29.8 196.1 29.956 195.74 30.268C195.38 30.58 195.158 30.994 195.074 31.51ZM209.17 37.252C208.006 37.252 207.052 37 206.308 36.496C205.564 35.992 205.114 35.272 204.958 34.336L207.046 33.796C207.13 34.216 207.268 34.546 207.46 34.786C207.664 35.026 207.91 35.2 208.198 35.308C208.498 35.404 208.822 35.452 209.17 35.452C209.698 35.452 210.088 35.362 210.34 35.182C210.592 34.99 210.718 34.756 210.718 34.48C210.718 34.204 210.598 33.994 210.358 33.85C210.118 33.694 209.734 33.568 209.206 33.472L208.702 33.382C208.078 33.262 207.508 33.1 206.992 32.896C206.476 32.68 206.062 32.386 205.75 32.014C205.438 31.642 205.282 31.162 205.282 30.574C205.282 29.686 205.606 29.008 206.254 28.54C206.902 28.06 207.754 27.82 208.81 27.82C209.806 27.82 210.634 28.042 211.294 28.486C211.954 28.93 212.386 29.512 212.59 30.232L210.484 30.88C210.388 30.424 210.19 30.1 209.89 29.908C209.602 29.716 209.242 29.62 208.81 29.62C208.378 29.62 208.048 29.698 207.82 29.854C207.592 29.998 207.478 30.202 207.478 30.466C207.478 30.754 207.598 30.97 207.838 31.114C208.078 31.246 208.402 31.348 208.81 31.42L209.314 31.51C209.986 31.63 210.592 31.792 211.132 31.996C211.684 32.188 212.116 32.47 212.428 32.842C212.752 33.202 212.914 33.694 212.914 34.318C212.914 35.254 212.572 35.98 211.888 36.496C211.216 37 210.31 37.252 209.17 37.252Z" fill="#080E0F"/>
<defs>
<linearGradient id="paint0_linear_31_261" x1="0" y1="60" x2="262" y2="60" gradientUnits="userSpaceOnUse">
<stop stop-color="#83A7B0" stop-opacity="0"/>
<stop offset="1" stop-color="#83A7B0" stop-opacity="0.1"/>
</linearGradient>
<linearGradient id="paint1_linear_31_261" x1="0" y1="60" x2="262" y2="60" gradientUnits="userSpaceOnUse">
<stop stop-color="#83A7B0"/>
<stop offset="1" stop-color="#E8E8E8" stop-opacity="0"/>
</linearGradient>
</defs>
</svg>
