<svg width="262" height="60" viewBox="0 0 262 60" fill="none" xmlns="http://www.w3.org/2000/svg">
<path d="M261 23C261 10.8497 251.15 1 239 1H23C10.8497 1 1 10.8497 1 23V37C1 49.1503 10.8497 59 23 59H239C251.15 59 261 49.1503 261 37V23Z" fill="url(#paint0_linear_58_2)" stroke="url(#paint1_linear_58_2)" stroke-width="2"/>
<path d="M52.188 37V24.4H57.66C58.452 24.4 59.142 24.538 59.73 24.814C60.318 25.09 60.774 25.48 61.098 25.984C61.422 26.488 61.584 27.082 61.584 27.766V27.982C61.584 28.738 61.404 29.35 61.044 29.818C60.684 30.286 60.24 30.628 59.712 30.844V31.168C60.192 31.192 60.564 31.36 60.828 31.672C61.092 31.972 61.224 32.374 61.224 32.878V37H58.848V33.22C58.848 32.932 58.77 32.698 58.614 32.518C58.47 32.338 58.224 32.248 57.876 32.248H54.564V37H52.188ZM54.564 30.088H57.408C57.972 30.088 58.41 29.938 58.722 29.638C59.046 29.326 59.208 28.918 59.208 28.414V28.234C59.208 27.73 59.052 27.328 58.74 27.028C58.428 26.716 57.984 26.56 57.408 26.56H54.564V30.088ZM69.591 37.252C68.703 37.252 67.917 37.066 67.233 36.694C66.561 36.31 66.033 35.776 65.649 35.092C65.277 34.396 65.091 33.58 65.091 32.644V32.428C65.091 31.492 65.277 30.682 65.649 29.998C66.021 29.302 66.543 28.768 67.215 28.396C67.887 28.012 68.667 27.82 69.555 27.82C70.431 27.82 71.193 28.018 71.841 28.414C72.489 28.798 72.993 29.338 73.353 30.034C73.713 30.718 73.893 31.516 73.893 32.428V33.202H67.395C67.419 33.814 67.647 34.312 68.079 34.696C68.511 35.08 69.039 35.272 69.663 35.272C70.299 35.272 70.767 35.134 71.067 34.858C71.367 34.582 71.595 34.276 71.751 33.94L73.605 34.912C73.437 35.224 73.191 35.566 72.867 35.938C72.555 36.298 72.135 36.61 71.607 36.874C71.079 37.126 70.407 37.252 69.591 37.252ZM67.413 31.51H71.589C71.541 30.994 71.331 30.58 70.959 30.268C70.599 29.956 70.125 29.8 69.537 29.8C68.925 29.8 68.439 29.956 68.079 30.268C67.719 30.58 67.497 30.994 67.413 31.51ZM80.5737 37.252C79.9377 37.252 79.3677 37.144 78.8637 36.928C78.3597 36.7 77.9577 36.376 77.6577 35.956C77.3697 35.524 77.2257 35.002 77.2257 34.39C77.2257 33.778 77.3697 33.268 77.6577 32.86C77.9577 32.44 78.3657 32.128 78.8817 31.924C79.4097 31.708 80.0097 31.6 80.6817 31.6H83.1297V31.096C83.1297 30.676 82.9977 30.334 82.7337 30.07C82.4697 29.794 82.0497 29.656 81.4737 29.656C80.9097 29.656 80.4897 29.788 80.2137 30.052C79.9377 30.304 79.7577 30.634 79.6737 31.042L77.5857 30.34C77.7297 29.884 77.9577 29.47 78.2697 29.098C78.5937 28.714 79.0197 28.408 79.5477 28.18C80.0877 27.94 80.7417 27.82 81.5097 27.82C82.6857 27.82 83.6157 28.114 84.2997 28.702C84.9837 29.29 85.3257 30.142 85.3257 31.258V34.588C85.3257 34.948 85.4937 35.128 85.8297 35.128H86.5497V37H85.0377C84.5937 37 84.2277 36.892 83.9397 36.676C83.6517 36.46 83.5077 36.172 83.5077 35.812V35.794H83.1657C83.1177 35.938 83.0097 36.13 82.8417 36.37C82.6737 36.598 82.4097 36.802 82.0497 36.982C81.6897 37.162 81.1977 37.252 80.5737 37.252ZM80.9697 35.416C81.6057 35.416 82.1217 35.242 82.5177 34.894C82.9257 34.534 83.1297 34.06 83.1297 33.472V33.292H80.8437C80.4237 33.292 80.0937 33.382 79.8537 33.562C79.6137 33.742 79.4937 33.994 79.4937 34.318C79.4937 34.642 79.6197 34.906 79.8717 35.11C80.1237 35.314 80.4897 35.416 80.9697 35.416ZM93.5222 37.252C92.8142 37.252 92.1482 37.078 91.5242 36.73C90.9122 36.37 90.4202 35.848 90.0482 35.164C89.6762 34.48 89.4902 33.652 89.4902 32.68V32.392C89.4902 31.42 89.6762 30.592 90.0482 29.908C90.4202 29.224 90.9122 28.708 91.5242 28.36C92.1362 28 92.8022 27.82 93.5222 27.82C94.0622 27.82 94.5122 27.886 94.8722 28.018C95.2442 28.138 95.5442 28.294 95.7722 28.486C96.0002 28.678 96.1742 28.882 96.2942 29.098H96.6182V24.4H98.8862V37H96.6542V35.92H96.3302C96.1262 36.256 95.8082 36.562 95.3762 36.838C94.9562 37.114 94.3382 37.252 93.5222 37.252ZM94.2062 35.272C94.9022 35.272 95.4842 35.05 95.9522 34.606C96.4202 34.15 96.6542 33.49 96.6542 32.626V32.446C96.6542 31.582 96.4202 30.928 95.9522 30.484C95.4962 30.028 94.9142 29.8 94.2062 29.8C93.5102 29.8 92.9282 30.028 92.4602 30.484C91.9922 30.928 91.7582 31.582 91.7582 32.446V32.626C91.7582 33.49 91.9922 34.15 92.4602 34.606C92.9282 35.05 93.5102 35.272 94.2062 35.272ZM109.679 37V24.4H114.089L116.267 35.38H116.591L118.769 24.4H123.179V37H120.875V26.146H120.551L118.391 37H114.467L112.307 26.146H111.983V37H109.679ZM130.286 37.252C129.65 37.252 129.08 37.144 128.576 36.928C128.072 36.7 127.67 36.376 127.37 35.956C127.082 35.524 126.938 35.002 126.938 34.39C126.938 33.778 127.082 33.268 127.37 32.86C127.67 32.44 128.078 32.128 128.594 31.924C129.122 31.708 129.722 31.6 130.394 31.6H132.842V31.096C132.842 30.676 132.71 30.334 132.446 30.07C132.182 29.794 131.762 29.656 131.186 29.656C130.622 29.656 130.202 29.788 129.926 30.052C129.65 30.304 129.47 30.634 129.386 31.042L127.298 30.34C127.442 29.884 127.67 29.47 127.982 29.098C128.306 28.714 128.732 28.408 129.26 28.18C129.8 27.94 130.454 27.82 131.222 27.82C132.398 27.82 133.328 28.114 134.012 28.702C134.696 29.29 135.038 30.142 135.038 31.258V34.588C135.038 34.948 135.206 35.128 135.542 35.128H136.262V37H134.75C134.306 37 133.94 36.892 133.652 36.676C133.364 36.46 133.22 36.172 133.22 35.812V35.794H132.878C132.83 35.938 132.722 36.13 132.554 36.37C132.386 36.598 132.122 36.802 131.762 36.982C131.402 37.162 130.91 37.252 130.286 37.252ZM130.682 35.416C131.318 35.416 131.834 35.242 132.23 34.894C132.638 34.534 132.842 34.06 132.842 33.472V33.292H130.556C130.136 33.292 129.806 33.382 129.566 33.562C129.326 33.742 129.206 33.994 129.206 34.318C129.206 34.642 129.332 34.906 129.584 35.11C129.836 35.314 130.202 35.416 130.682 35.416ZM139.81 37V28.072H142.042V29.242H142.366C142.51 28.93 142.78 28.636 143.176 28.36C143.572 28.072 144.172 27.928 144.976 27.928C145.672 27.928 146.278 28.09 146.794 28.414C147.322 28.726 147.73 29.164 148.018 29.728C148.306 30.28 148.45 30.928 148.45 31.672V37H146.182V31.852C146.182 31.18 146.014 30.676 145.678 30.34C145.354 30.004 144.886 29.836 144.274 29.836C143.578 29.836 143.038 30.07 142.654 30.538C142.27 30.994 142.078 31.636 142.078 32.464V37H139.81ZM152.792 37V28.072H155.06V37H152.792ZM153.926 27.028C153.518 27.028 153.17 26.896 152.882 26.632C152.606 26.368 152.468 26.02 152.468 25.588C152.468 25.156 152.606 24.808 152.882 24.544C153.17 24.28 153.518 24.148 153.926 24.148C154.346 24.148 154.694 24.28 154.97 24.544C155.246 24.808 155.384 25.156 155.384 25.588C155.384 26.02 155.246 26.368 154.97 26.632C154.694 26.896 154.346 27.028 153.926 27.028ZM160.939 37V29.944H158.671V28.072H160.939V26.416C160.939 25.804 161.119 25.318 161.479 24.958C161.851 24.586 162.331 24.4 162.919 24.4H165.259V26.272H163.711C163.375 26.272 163.207 26.452 163.207 26.812V28.072H165.547V29.944H163.207V37H160.939ZM172.962 37.252C172.074 37.252 171.288 37.066 170.604 36.694C169.932 36.31 169.404 35.776 169.02 35.092C168.648 34.396 168.462 33.58 168.462 32.644V32.428C168.462 31.492 168.648 30.682 169.02 29.998C169.392 29.302 169.914 28.768 170.586 28.396C171.258 28.012 172.038 27.82 172.926 27.82C173.802 27.82 174.564 28.018 175.212 28.414C175.86 28.798 176.364 29.338 176.724 30.034C177.084 30.718 177.264 31.516 177.264 32.428V33.202H170.766C170.79 33.814 171.018 34.312 171.45 34.696C171.882 35.08 172.41 35.272 173.034 35.272C173.67 35.272 174.138 35.134 174.438 34.858C174.738 34.582 174.966 34.276 175.122 33.94L176.976 34.912C176.808 35.224 176.562 35.566 176.238 35.938C175.926 36.298 175.506 36.61 174.978 36.874C174.45 37.126 173.778 37.252 172.962 37.252ZM170.784 31.51H174.96C174.912 30.994 174.702 30.58 174.33 30.268C173.97 29.956 173.496 29.8 172.908 29.8C172.296 29.8 171.81 29.956 171.45 30.268C171.09 30.58 170.868 30.994 170.784 31.51ZM184.881 37.252C183.717 37.252 182.763 37 182.019 36.496C181.275 35.992 180.825 35.272 180.669 34.336L182.757 33.796C182.841 34.216 182.979 34.546 183.171 34.786C183.375 35.026 183.621 35.2 183.909 35.308C184.209 35.404 184.533 35.452 184.881 35.452C185.409 35.452 185.799 35.362 186.051 35.182C186.303 34.99 186.429 34.756 186.429 34.48C186.429 34.204 186.309 33.994 186.069 33.85C185.829 33.694 185.445 33.568 184.917 33.472L184.413 33.382C183.789 33.262 183.219 33.1 182.703 32.896C182.187 32.68 181.773 32.386 181.461 32.014C181.149 31.642 180.993 31.162 180.993 30.574C180.993 29.686 181.317 29.008 181.965 28.54C182.613 28.06 183.465 27.82 184.521 27.82C185.517 27.82 186.345 28.042 187.005 28.486C187.665 28.93 188.097 29.512 188.301 30.232L186.195 30.88C186.099 30.424 185.901 30.1 185.601 29.908C185.313 29.716 184.953 29.62 184.521 29.62C184.089 29.62 183.759 29.698 183.531 29.854C183.303 29.998 183.189 30.202 183.189 30.466C183.189 30.754 183.309 30.97 183.549 31.114C183.789 31.246 184.113 31.348 184.521 31.42L185.025 31.51C185.697 31.63 186.303 31.792 186.843 31.996C187.395 32.188 187.827 32.47 188.139 32.842C188.463 33.202 188.625 33.694 188.625 34.318C188.625 35.254 188.283 35.98 187.599 36.496C186.927 37 186.021 37.252 184.881 37.252ZM195.747 37C195.159 37 194.679 36.82 194.307 36.46C193.947 36.088 193.767 35.596 193.767 34.984V29.944H191.535V28.072H193.767V25.3H196.035V28.072H198.483V29.944H196.035V34.588C196.035 34.948 196.203 35.128 196.539 35.128H198.267V37H195.747ZM206.357 37.252C205.469 37.252 204.671 37.072 203.963 36.712C203.255 36.352 202.697 35.83 202.289 35.146C201.881 34.462 201.677 33.64 201.677 32.68V32.392C201.677 31.432 201.881 30.61 202.289 29.926C202.697 29.242 203.255 28.72 203.963 28.36C204.671 28 205.469 27.82 206.357 27.82C207.245 27.82 208.043 28 208.751 28.36C209.459 28.72 210.017 29.242 210.425 29.926C210.833 30.61 211.037 31.432 211.037 32.392V32.68C211.037 33.64 210.833 34.462 210.425 35.146C210.017 35.83 209.459 36.352 208.751 36.712C208.043 37.072 207.245 37.252 206.357 37.252ZM206.357 35.236C207.053 35.236 207.629 35.014 208.085 34.57C208.541 34.114 208.769 33.466 208.769 32.626V32.446C208.769 31.606 208.541 30.964 208.085 30.52C207.641 30.064 207.065 29.836 206.357 29.836C205.661 29.836 205.085 30.064 204.629 30.52C204.173 30.964 203.945 31.606 203.945 32.446V32.626C203.945 33.466 204.173 34.114 204.629 34.57C205.085 35.014 205.661 35.236 206.357 35.236Z" fill="#080E0F"/>
<defs>
<linearGradient id="paint0_linear_58_2" x1="0" y1="60" x2="262" y2="60" gradientUnits="userSpaceOnUse">
<stop stop-color="#B08383" stop-opacity="0"/>
<stop offset="1" stop-color="#B08383" stop-opacity="0.1"/>
</linearGradient>
<linearGradient id="paint1_linear_58_2" x1="0" y1="60" x2="262" y2="60" gradientUnits="userSpaceOnUse">
<stop stop-color="#B08383"/>
<stop offset="1" stop-color="#E8E8E8" stop-opacity="0"/>
</linearGradient>
</defs>
</svg>
