<svg width="451" height="451" viewBox="0 0 451 451" fill="none" xmlns="http://www.w3.org/2000/svg">
<rect x="0.736928" y="0.736928" width="449.526" height="449.526" rx="44.2631" fill="url(#paint0_linear_155_9)" stroke="url(#paint1_linear_155_9)" stroke-width="1.47386"/>
<g filter="url(#filter0_d_155_9)">
<path d="M321.39 273.863H300.222V159.891C300.222 141.215 285.025 126.015 266.347 126.015H140.73C122.055 126.015 106.855 141.212 106.855 159.891V175.772C106.855 179.278 109.693 182.123 113.208 182.123H161.896V290.801C161.896 309.272 176.762 324.34 195.155 324.669C195.241 324.673 195.327 324.678 195.421 324.678H293.864C312.541 324.678 327.741 309.478 327.741 290.802V280.215C327.744 276.705 324.898 273.863 321.391 273.863L321.39 273.863Z" fill="white"/>
</g>
<path d="M321.39 273.863H300.222V159.891C300.222 141.215 285.025 126.015 266.347 126.015H140.73C122.055 126.015 106.855 141.212 106.855 159.891V175.772C106.855 179.278 109.693 182.123 113.208 182.123H161.896V290.801C161.896 309.272 176.762 324.34 195.155 324.669C195.241 324.673 195.327 324.678 195.421 324.678H293.864C312.541 324.678 327.741 309.478 327.741 290.802V280.215C327.744 276.705 324.898 273.863 321.391 273.863L321.39 273.863ZM119.56 159.891C119.56 148.217 129.06 138.716 140.734 138.716C152.409 138.716 161.901 148.217 161.901 159.891V169.417L119.558 169.415L119.56 159.891ZM216.952 280.216V290.802C216.952 302.473 207.452 311.973 195.776 311.973C184.102 311.973 174.602 302.473 174.602 290.802V159.892C174.602 151.881 171.8 144.524 167.134 138.716H266.352C278.023 138.716 287.523 148.218 287.523 159.892V273.863H223.295C219.789 273.86 216.95 276.702 216.95 280.214L216.952 280.216ZM315.041 290.801C315.041 302.471 305.541 311.971 293.867 311.971H222.201C226.857 306.171 229.651 298.805 229.651 290.801V286.563H315.042V290.801H315.041Z" fill="#83A7B0"/>
<path d="M191.013 175.304C191.013 171.942 193.739 169.217 197.1 169.217H265.901C269.263 169.217 271.988 171.942 271.988 175.304C271.988 178.666 269.263 181.391 265.901 181.391H197.1C193.739 181.391 191.013 178.666 191.013 175.304Z" fill="#83A7B0"/>
<path d="M191.013 194.188C191.013 190.826 193.739 188.101 197.1 188.101H265.901C269.263 188.101 271.988 190.826 271.988 194.188C271.988 197.55 269.263 200.275 265.901 200.275H197.1C193.739 200.275 191.013 197.55 191.013 194.188Z" fill="#83A7B0"/>
<path d="M191.013 213.076C191.013 209.714 193.739 206.989 197.1 206.989H265.901C269.263 206.989 271.988 209.714 271.988 213.076C271.988 216.438 269.263 219.163 265.901 219.163H197.1C193.739 219.163 191.013 216.438 191.013 213.076Z" fill="#83A7B0"/>
<path d="M191.013 231.96C191.013 228.598 193.739 225.873 197.101 225.873H265.9C269.263 225.873 271.988 228.598 271.988 231.96C271.988 235.323 269.263 238.048 265.9 238.048H197.101C193.739 238.048 191.013 235.323 191.013 231.96Z" fill="#83A7B0"/>
<path d="M191.013 175.304C191.013 171.942 193.739 169.217 197.1 169.217H265.901C269.263 169.217 271.988 171.942 271.988 175.304C271.988 178.666 269.263 181.391 265.901 181.391H197.1C193.739 181.391 191.013 178.666 191.013 175.304Z" fill="#83A7B0"/>
<path d="M191.013 194.188C191.013 190.826 193.739 188.101 197.1 188.101H265.901C269.263 188.101 271.988 190.826 271.988 194.188C271.988 197.55 269.263 200.275 265.901 200.275H197.1C193.739 200.275 191.013 197.55 191.013 194.188Z" fill="#83A7B0"/>
<path d="M191.013 213.076C191.013 209.714 193.739 206.989 197.1 206.989H265.901C269.263 206.989 271.988 209.714 271.988 213.076C271.988 216.437 269.263 219.163 265.901 219.163H197.1C193.739 219.163 191.013 216.437 191.013 213.076Z" fill="#83A7B0"/>
<path d="M191.013 231.96C191.013 228.598 193.739 225.873 197.101 225.873H265.9C269.263 225.873 271.988 228.598 271.988 231.96C271.988 235.323 269.263 238.048 265.9 238.048H197.101C193.739 238.048 191.013 235.323 191.013 231.96Z" fill="#83A7B0"/>
<defs>
<filter id="filter0_d_155_9" x="78.8513" y="123.067" width="276.893" height="254.67" filterUnits="userSpaceOnUse" color-interpolation-filters="sRGB">
<feFlood flood-opacity="0" result="BackgroundImageFix"/>
<feColorMatrix in="SourceAlpha" type="matrix" values="0 0 0 0 0 0 0 0 0 0 0 0 0 0 0 0 0 0 127 0" result="hardAlpha"/>
<feOffset dy="25.0556"/>
<feGaussianBlur stdDeviation="14.0016"/>
<feComposite in2="hardAlpha" operator="out"/>
<feColorMatrix type="matrix" values="0 0 0 0 0.513726 0 0 0 0 0.654902 0 0 0 0 0.690196 0 0 0 0.26 0"/>
<feBlend mode="normal" in2="BackgroundImageFix" result="effect1_dropShadow_155_9"/>
<feBlend mode="normal" in="SourceGraphic" in2="effect1_dropShadow_155_9" result="shape"/>
</filter>
<linearGradient id="paint0_linear_155_9" x1="225.5" y1="0" x2="225.5" y2="451" gradientUnits="userSpaceOnUse">
<stop stop-color="#83A7B0" stop-opacity="0"/>
<stop offset="1" stop-color="#83A7B0" stop-opacity="0.1"/>
</linearGradient>
<linearGradient id="paint1_linear_155_9" x1="225.5" y1="0" x2="225.5" y2="451" gradientUnits="userSpaceOnUse">
<stop stop-color="#83A7B0"/>
<stop offset="1" stop-color="#E8E8E8" stop-opacity="0"/>
</linearGradient>
</defs>
</svg>
