<svg width="32" height="22" viewBox="0 0 32 22" fill="none" xmlns="http://www.w3.org/2000/svg">
<path d="M22.743 3.21843L22.8784 2.40573C22.9413 2.01644 22.8562 1.61756 22.6399 1.28764C22.4237 0.957743 22.0919 0.720892 21.7096 0.623377L19.3987 0.0456429C19.0148 -0.0488137 18.6093 0.00449257 18.2628 0.194812C17.9163 0.384898 17.6537 0.698435 17.527 1.073L17.256 1.88594C13.2517 1.28297 10.0244 1.64302 7.66016 2.95842C5.77192 4.00893 4.50959 5.68767 4.19703 7.56465C3.74999 10.2471 4.39413 11.8788 4.67914 12.4384L4.24543 14.1732L0.179028 17.7313C-0.00053601 17.8881 -0.0512746 18.1465 0.0553443 18.3597C0.0971959 18.4432 1.10795 20.4147 3.63914 21.0801C4.20074 21.2257 4.77871 21.2982 5.35876 21.2959C7.44152 21.2959 9.81769 20.421 12.4491 18.6828C16.0608 19.702 20.1512 20.2199 24.6146 20.2199C24.7535 20.2199 24.8867 20.1647 24.9849 20.0665L26.9302 18.1213C28.2723 18.0794 29.962 17.6359 30.8442 15.8716C31.4231 14.7135 31.4231 13.4341 31.4231 12.8877C31.4235 11.4049 31.0204 9.94991 30.2569 8.67896C28.8536 6.30698 26.327 4.47137 22.743 3.21843ZM18.5205 1.40412C18.6082 1.1453 18.8791 0.996594 19.1445 1.06159L21.4554 1.63932C21.7194 1.70666 21.8885 1.96432 21.845 2.23343L21.7358 2.88902C21.1882 2.72278 20.6145 2.56823 20.0229 2.42725C19.4391 2.28837 18.8623 2.16609 18.3011 2.06158L18.5205 1.40412ZM22.2927 16.9418C19.2436 16.7021 15.1281 16.0996 11.0831 14.6348C11.5521 12.5055 12.2825 10.6082 13.2573 8.98979C14.0492 7.65593 15.0639 6.4677 16.2573 5.47663C17.799 4.21124 19.2074 3.68943 19.762 3.51848C20.6315 4.37093 24.1414 8.43608 22.2927 16.9418ZM5.23054 7.73674C5.35352 6.99837 5.88613 5.14431 8.16994 3.87378C10.3771 2.6458 13.6128 2.34001 17.527 2.98883C17.6986 3.01736 17.8723 3.04798 18.0477 3.08048C17.1906 3.50274 16.3842 4.02109 15.6442 4.62545C14.3477 5.6902 13.2448 6.97055 12.384 8.41029C11.362 10.0968 10.5939 12.0619 10.0952 14.2585C9.88878 14.176 9.6828 14.0911 9.47706 14.0041C9.46981 14.0006 9.46256 13.9976 9.45531 13.9943C8.12588 13.4336 6.84535 12.7631 5.62671 11.9903C5.47731 11.6941 5.36368 11.3815 5.28746 11.0589C5.12028 10.3902 4.97475 9.27123 5.23054 7.73674ZM3.92733 20.0722C2.83055 19.7963 1.86605 19.1428 1.20346 18.2265L4.72645 15.1437C5.50503 15.7383 7.54847 17.1096 11.1267 18.2817C8.32826 19.9814 5.90947 20.584 3.92733 20.0722ZM24.3988 19.1723C20.0214 19.1554 16.0215 18.6305 12.5045 17.6111C9.83019 16.8363 7.94967 15.9146 6.84284 15.2782C6.30719 14.9752 5.79234 14.6361 5.30207 14.2639L5.57048 13.1903C6.67964 13.8571 7.83442 14.4451 9.02588 14.9499C9.03313 14.9534 9.04038 14.9564 9.04786 14.9597C15.068 17.5227 21.5551 18.0429 24.886 18.125C25.0836 18.1299 25.2673 18.1329 25.4359 18.135L24.3988 19.1723ZM29.908 15.4033C29.3445 16.5297 28.2984 17.0776 26.7102 17.0776V17.0788C26.703 17.0788 26.6957 17.0776 26.6882 17.0781C26.6807 17.0783 26.0182 17.1052 24.9115 17.0781C24.449 17.0668 23.9244 17.0467 23.3478 17.0135C24.4397 11.8433 23.6101 8.25081 22.6974 6.12178C22.3644 5.33715 21.9468 4.59177 21.4518 3.89806C21.6342 3.95347 21.8131 4.01029 21.9887 4.06827C25.5514 5.24154 28.0303 6.97242 29.3554 9.21248C30.376 10.9368 30.376 12.4051 30.376 12.8877C30.376 13.3999 30.3763 14.4664 29.908 15.4033Z" fill="#83A0B0"/>
</svg>
