<svg width="86" height="58" viewBox="0 0 86 58" fill="none" xmlns="http://www.w3.org/2000/svg">
<path d="M62.0792 9.43199L62.4429 7.24853C62.6119 6.20264 62.3832 5.13099 61.8022 4.24462C61.2211 3.35829 60.3298 2.72195 59.3027 2.45996L53.0941 0.907783C52.0626 0.654011 50.9733 0.797226 50.0424 1.30855C49.1115 1.81925 48.406 2.66161 48.0656 3.66794L47.3376 5.85204C36.5791 4.23206 27.9086 5.19939 21.5567 8.73342C16.4836 11.5558 13.0922 16.066 12.2524 21.1088C11.0514 28.3156 12.782 32.6996 13.5477 34.2028L12.3825 38.8637L1.45743 48.423C0.975 48.8445 0.838683 49.5386 1.12513 50.1115C1.23757 50.3357 3.95312 55.6324 10.7536 57.4201V57.4195C12.2624 57.8108 13.8152 58.0062 15.3736 57.9999C20.9693 57.9999 27.3532 55.6493 34.423 50.9796C44.1262 53.7177 55.1159 55.1092 67.1074 55.1092C67.4805 55.1092 67.8386 54.9609 68.1024 54.6971L73.3287 49.4708C76.9344 49.3584 81.474 48.1668 83.8442 43.4267C85.3995 40.3153 85.3995 36.878 85.3995 35.41C85.4007 31.4263 84.3178 27.5172 82.2663 24.1026C78.4961 17.7299 71.7057 12.7982 62.0767 9.43197L62.0792 9.43199ZM50.7346 4.55755C50.9702 3.86218 51.6982 3.46267 52.4112 3.63729L58.6199 5.18946C59.3291 5.37037 59.7833 6.06261 59.6664 6.78562L59.3731 8.54696C57.9019 8.10035 56.3605 7.68512 54.7712 7.30635C53.2027 6.93323 51.653 6.6047 50.1454 6.32391L50.7346 4.55755ZM60.8693 46.3019C52.6775 45.6581 41.6205 44.0394 30.753 40.1039C32.0131 34.3833 33.9755 29.2858 36.5942 24.9377C38.7217 21.354 41.4481 18.1617 44.6541 15.499C48.7962 12.0993 52.5802 10.6974 54.0703 10.2381C56.4064 12.5284 65.8364 23.4508 60.8694 46.3027L60.8693 46.3019ZM15.0291 21.5711C15.3595 19.5874 16.7905 14.6062 22.9263 11.1927C28.8561 7.89353 37.5493 7.07196 48.0655 8.81513H48.0662C48.5272 8.89176 48.9933 8.97405 49.4644 9.06136C47.1617 10.1958 44.9951 11.5885 43.007 13.2122C39.5239 16.0728 36.5608 19.5126 34.2479 23.3807C31.5023 27.9117 29.4387 33.1914 28.0989 39.0929C27.5442 38.8712 26.9908 38.6431 26.4381 38.4095C26.4186 38.4 26.3991 38.3919 26.3796 38.3831V38.3825C22.8079 36.8761 19.3676 35.0753 16.0935 32.9991C15.6921 32.2032 15.3868 31.3633 15.182 30.4965C14.7329 28.7 14.3422 25.6937 15.0294 21.571L15.0291 21.5711ZM11.5278 54.7122C8.58116 53.971 5.98989 52.2154 4.20974 49.7535L13.6748 41.4712C15.7666 43.0686 21.2566 46.7528 30.8701 49.9018C23.3516 54.4685 16.8532 56.0873 11.5278 54.7122ZM66.5277 52.2945C54.7672 52.2493 44.0209 50.839 34.5717 48.1003C27.3868 46.0186 22.3345 43.5423 19.3608 41.8324V41.8318C17.9217 41.0177 16.5385 40.1074 15.2213 39.1075L15.9424 36.2229C18.9224 38.0145 22.0248 39.5943 25.2259 40.9504C25.2454 40.9598 25.2649 40.968 25.285 40.9768C41.4591 47.8626 58.8876 49.2604 67.8366 49.4808C68.3674 49.494 68.8611 49.5022 69.314 49.5078L66.5277 52.2945ZM81.329 42.1685C79.8151 45.1949 77.0047 46.6668 72.7376 46.6668V46.67C72.7182 46.67 72.6987 46.6668 72.6786 46.6681C72.6585 46.6687 70.8783 46.7409 67.9051 46.6681C66.6626 46.6379 65.2531 46.5839 63.704 46.4947C66.6375 32.6042 64.4088 22.9523 61.9565 17.2323V17.2329C61.062 15.1249 59.9401 13.1217 58.6102 11.2579C59.1002 11.4068 59.5807 11.5594 60.0525 11.7152H60.0537C69.6256 14.8674 76.2842 19.5177 79.8445 25.5359C82.5864 30.1687 82.5864 34.1135 82.5864 35.4099C82.5864 36.7862 82.5864 39.6506 81.3282 42.1676L81.329 42.1685Z" fill="#83A0B0"/>
</svg>
